<svg width="93" height="43" viewBox="0 0 93 43" fill="none" xmlns="http://www.w3.org/2000/svg">
<path d="M14.0338 28.0404C13.1559 26.2878 12.126 24.5174 10.1172 24.5174C9.73313 24.5174 9.34957 24.582 8.99759 24.7449L8.31514 23.3595C9.14681 22.6357 10.4906 22.0618 12.218 22.0618C14.9053 22.0618 16.2844 23.3748 17.3792 25.0509C18.0292 23.62 18.3381 21.6876 18.3381 19.2924C18.3381 13.311 16.494 10.2397 12.1865 10.2397C7.94165 10.2397 6.1076 13.311 6.1076 19.2924C6.1076 25.2422 7.94165 28.2819 12.1865 28.2819C12.8611 28.2819 13.4722 28.2066 14.0338 28.0404ZM15.0861 30.1279C14.1555 30.3809 13.1669 30.5206 12.1865 30.5206C6.53419 30.5206 1 25.9456 1 19.2924C1 12.576 6.53419 8 12.1865 8C17.9335 8 23.4146 12.543 23.4146 19.2924C23.4146 23.0466 21.6876 26.0974 19.1776 28.0692C19.9886 29.3019 20.8235 30.1204 21.9861 30.1204C23.2548 30.1204 23.7666 29.1259 23.8522 28.3459H25.5045C25.6011 29.3845 25.0889 33.701 20.471 33.701C17.674 33.701 16.1951 32.0565 15.0861 30.1279ZM27.0484 24.4204V16.729C27.0484 15.8529 26.7293 15.4639 25.7375 15.4639H24.6815V13.4201H31.5806V24.3234C31.5806 26.1615 32.5615 26.9721 34.055 26.9721C35.2808 26.9721 36.507 26.4219 37.1684 25.166V16.729C37.1684 15.8529 36.8484 15.4639 35.857 15.4639H34.7374V13.4201H41.7011V24.841C41.7011 25.9785 42.1167 26.4971 43.396 26.4971H43.6203V28.6064L37.3926 29.612V27.4382H37.2645C36.0598 28.93 34.3644 29.9366 31.9436 29.9366C29.2243 29.9366 27.0484 28.5419 27.0484 24.4204ZM52.6802 27.8928C55.1331 27.8928 56.065 25.7283 56.1139 21.37C56.1615 17.107 55.1331 15.0432 52.6802 15.0432C50.5372 15.0432 49.1934 17.1079 49.1934 21.37C49.1934 25.7292 50.5152 27.8928 52.6802 27.8928ZM52.6802 29.9366C48.2445 29.9366 44.2446 26.4962 44.2446 21.37C44.2446 16.34 48.1479 12.9976 52.6802 12.9976C57.4042 12.9976 61.19 16.404 61.19 21.37C61.19 26.4962 57.4042 29.9366 52.6802 29.9366ZM61.3309 29.612V27.5678H62.0029C63.6666 27.5678 63.8264 27.0812 63.8264 25.621V16.729C63.8264 15.8529 63.3787 15.4639 62.3553 15.4639H61.4596V13.4201H67.7824L68.1023 16.7625H68.2309C68.9349 14.3603 70.8221 13.0946 72.5916 13.0946C74.0526 13.0946 75.1932 13.9387 75.1932 15.6482C75.1932 16.8377 74.6293 18.1038 73.0507 18.1038C71.6317 18.1038 71.3553 17.1297 70.1817 17.1297C69.1372 17.1297 68.3261 18.1363 68.3261 19.6174V25.621C68.3261 27.0812 68.6786 27.5678 70.3103 27.5678H71.2377V29.612H61.3309ZM82.3811 27.2326C84.3969 27.2326 85.2281 25.2965 85.2281 23.3507V20.7535C83.757 22.2995 80.3333 22.3539 80.3333 25.1122C80.3333 26.4642 81.1233 27.2326 82.3811 27.2326ZM85.3246 27.2214C84.4925 28.8436 82.7857 29.9366 80.3978 29.9366C77.6255 29.9366 75.834 28.443 75.834 25.8151C75.834 20.5269 83.0956 21.9323 85.2281 18.4283V18.049C85.2281 15.3561 84.1831 14.9346 83.0315 14.9346C79.8005 14.9346 81.2716 18.459 78.2965 18.459C76.868 18.459 76.3132 17.5843 76.3132 16.6C76.3132 14.6096 78.6594 12.9976 83.064 12.9976C87.2324 12.9976 89.7924 14.1662 89.7924 18.374V25.0908C89.7924 26.129 90.1658 26.6921 91.0616 26.6921C91.4452 26.6921 91.7651 26.584 92.01 26.4108L92.5437 27.7294C92.1061 28.4114 90.9435 29.612 88.736 29.612C86.8172 29.612 85.6121 28.7034 85.4519 27.2214H85.3246Z" fill="white"/>
</svg>
