<svg width="114" height="43" fill="none" xmlns="http://www.w3.org/2000/svg"><path fill-rule="evenodd" clip-rule="evenodd" d="M14.01 35.231c7.737 0 14.007-6.273 14.007-14.01S21.747 7.21 14.01 7.21 0 13.484 0 21.22s6.273 14.01 14.01 14.01zM6.25 20.485c.018 5.276 4.023 8.56 7.87 8.548 4.752-.016 7.563-3.918 7.553-7.48-.013-3.56-1.949-6.134-6.214-7.174a1.244 1.244 0 01-.018-.229c-.008-2.69 2.02-5.063 4.569-5.59-.24-.083-.633-.114-1.01-.114-2.913.01-6.128 1.259-8.475 3.2-2.404 1.992-4.288 5.351-4.275 8.839z" fill="#fff"/><path d="M37.065 27.023l-4.283-10.221h2.798l2.672 6.787 2.59-6.787h2.671l-4.157 10.22h-2.29zM50.967 21.86c0-.425-.05-.83-.15-1.213a2.903 2.903 0 00-.445-.988 2.252 2.252 0 00-.72-.66 1.945 1.945 0 00-.997-.246c-.38 0-.715.082-.996.247-.283.162-.525.38-.72.659a2.905 2.905 0 00-.446.988c-.1.384-.15.788-.15 1.212 0 .44.05.85.15 1.225a3.2 3.2 0 00.432.989c.19.283.433.507.724.672.288.162.625.244 1.006.244s.713-.082.996-.244c.283-.165.523-.389.72-.672.2-.283.348-.613.446-.989.1-.375.15-.785.15-1.225zm2.586.01a6.48 6.48 0 01-.306 1.964 5.396 5.396 0 01-.914 1.727c-.401.51-.91.92-1.526 1.23-.615.312-1.333.467-2.152.467-.821 0-1.54-.155-2.152-.466a4.53 4.53 0 01-1.529-1.23 5.445 5.445 0 01-.91-1.728 6.386 6.386 0 010-3.915c.205-.635.509-1.204.91-1.706a4.47 4.47 0 011.53-1.207c.612-.304 1.33-.458 2.151-.458.819 0 1.534.154 2.142.458a4.585 4.585 0 011.526 1.207c.412.502.718 1.07.924 1.706.203.639.306 1.287.306 1.951zM61.453 19.051c-.507-.198-.978-.298-1.416-.298-.448 0-.836.087-1.158.257-.325.17-.592.399-.803.69-.211.29-.368.618-.474.98a3.96 3.96 0 00-.16 1.118c0 .424.047.831.14 1.222.09.389.231.731.422 1.022.188.291.427.525.715.703.288.175.63.265 1.025.265.324 0 .654-.09.99-.265.338-.178.577-.389.719-.628V19.05zm.21 7.972l-.105-.783c-.24.268-.556.505-.952.708-.394.206-.86.309-1.395.309-.703 0-1.326-.15-1.858-.445a4.161 4.161 0 01-1.354-1.187 5.43 5.43 0 01-.837-1.72 7.285 7.285 0 01-.283-2.035c0-.664.098-1.316.293-1.951a5.162 5.162 0 01.899-1.707 4.486 4.486 0 011.513-1.207c.605-.304 1.318-.458 2.134-.458.535 0 1.114.1 1.735.296v-3.964h2.628v14.144h-2.417zM71.483 22.23c-.283.015-.576.041-.875.075a9.982 9.982 0 00-.852.139c-.571.113-.965.306-1.186.582-.22.278-.33.576-.33.903 0 .337.124.61.373.816.25.203.6.306 1.056.306.342 0 .674-.07.993-.21.32-.142.595-.32.821-.531v-2.08zm.211 4.785l-.103-.764a2.916 2.916 0 01-1.086.738c-.44.178-.921.268-1.446.268-.44 0-.865-.075-1.267-.224a3.298 3.298 0 01-1.076-.636 3.104 3.104 0 01-.754-1.016 3.135 3.135 0 01-.288-1.37c0-.507.098-.957.298-1.346a2.94 2.94 0 01.809-.986c.34-.267.73-.486 1.17-.656.438-.17.902-.299 1.383-.383.34-.07.713-.122 1.117-.158.404-.036.741-.066 1.012-.095v-.15c0-.565-.144-.967-.438-1.209-.29-.24-.692-.36-1.202-.36a3.715 3.715 0 00-1.578.37 6.48 6.48 0 00-.566.32c-.162.105-.294.2-.394.285l-.87-1.843c.113-.1.286-.218.52-.36.234-.142.515-.28.85-.414a7.151 7.151 0 011.122-.34 6.214 6.214 0 011.346-.14c.566 0 1.084.076 1.55.225.465.15.87.38 1.21.7.336.317.601.718.794 1.207.191.487.286 1.076.286 1.768v6.57h-2.399zM82.217 15.21a4.147 4.147 0 00-.496-.18c-.25-.077-.577-.115-.989-.115-.365 0-.674.11-.921.33-.247.218-.37.576-.37 1.07v.486h2.205v2.121h-2.185v8.1h-2.63v-8.1h-1.357v-2.12h1.356v-.551c0-.665.085-1.226.255-1.686.17-.458.407-.834.71-1.123.304-.29.662-.504 1.071-.638.412-.134.857-.2 1.339-.2.635 0 1.16.059 1.577.18.417.12.662.2.731.244l-.296 2.183zM89.385 21.86c0-.425-.051-.83-.149-1.213a2.903 2.903 0 00-.445-.988 2.25 2.25 0 00-.72-.66 1.945 1.945 0 00-.997-.246c-.38 0-.716.082-.996.247a2.26 2.26 0 00-.723.659 3.005 3.005 0 00-.446.988 4.889 4.889 0 00-.146 1.212c0 .44.048.85.146 1.225.1.376.245.706.435.989.19.283.433.507.721.672.29.162.628.244 1.009.244.38 0 .713-.082.996-.244.283-.165.523-.389.72-.672.199-.283.348-.613.446-.989.098-.375.15-.785.15-1.225zm2.587.01c0 .667-.103 1.321-.309 1.964a5.34 5.34 0 01-.91 1.727c-.402.51-.912.92-1.527 1.23-.615.312-1.334.467-2.152.467-.821 0-1.54-.155-2.152-.466a4.53 4.53 0 01-1.529-1.23 5.44 5.44 0 01-.91-1.728 6.4 6.4 0 010-3.915c.205-.635.509-1.204.91-1.706a4.47 4.47 0 011.53-1.207c.612-.304 1.33-.458 2.151-.458.819 0 1.534.154 2.142.458a4.586 4.586 0 011.526 1.207c.412.502.718 1.07.921 1.706a6.31 6.31 0 01.31 1.951zM100.135 27.023v-5.83c0-.778-.163-1.38-.487-1.805-.327-.422-.777-.635-1.359-.635-.41 0-.788.105-1.133.319a4.777 4.777 0 00-.903.7v7.25h-2.628v-10.22h2.396l.126.805c.412-.337.873-.6 1.39-.782a4.569 4.569 0 011.558-.276c.538 0 1.032.08 1.485.242.453.165.841.422 1.166.775.327.353.576.813.754 1.377.175.566.265 1.246.265 2.036v6.044h-2.63zM110.945 20.683a2.683 2.683 0 00-.224-.921 1.946 1.946 0 00-.448-.636 1.777 1.777 0 00-.574-.363 1.794 1.794 0 00-.63-.116c-.456 0-.888.17-1.3.51-.412.34-.654.847-.726 1.526h3.902zm-3.964 1.887c.057.862.324 1.485.808 1.866.482.381 1.107.574 1.872.574.355 0 .689-.033 1.001-.095a4.63 4.63 0 00.831-.245c.242-.098.448-.198.618-.296.17-.1.296-.193.384-.278l.7 2.144a4.962 4.962 0 01-1.295.625 8.34 8.34 0 01-2.587.391 5.69 5.69 0 01-1.899-.315 4.24 4.24 0 01-1.578-.989 4.811 4.811 0 01-1.081-1.663c-.271-.664-.404-1.457-.404-2.375 0-.863.123-1.627.37-2.291.247-.664.587-1.223 1.017-1.676.432-.45.934-.798 1.506-1.04a4.714 4.714 0 011.835-.36c.651 0 1.251.108 1.804.319.551.211 1.027.54 1.431.986.402.445.721 1.022.953 1.73.234.705.35 1.546.35 2.522v.466h-6.636z" fill="#fff"/></svg>