<svg xmlns="http://www.w3.org/2000/svg" width="344" height="30" fill="none"><mask id="a" width="344" height="30" x="0" y="0" maskUnits="userSpaceOnUse" style="mask-type:luminance"><path fill="#fff" d="M343.3.5H0v29h343.3V.5Z"/></mask><g fill="#fff" mask="url(#a)"><path d="M226.608 5.654h11.767v2.478h-9.017v5.046h6.34v2.495h-6.34v5.957h9.272v2.477h-12.022V5.654ZM241.38 11.886h2.368l.091 1.53c.929-1.111 2.24-1.749 3.789-1.749 2.605 0 4.791 1.712 4.791 5.082v7.36h-2.551v-7.014c0-2.04-1.202-3.078-2.823-3.078s-3.115.893-3.115 3.242v6.831h-2.532V11.886h-.018ZM258.339 9.353h.62v2.532h4.408v2.222h-4.408v5.938c0 1.385.656 1.95 1.894 1.95.565 0 1.148-.183 1.767-.42l.583 2.095a6.79 6.79 0 0 1-2.878.656c-2.459 0-3.916-1.384-3.916-3.734v-6.485h-2.223v-.656l4.153-4.098ZM264.699 17.968c0-3.644 2.605-6.322 6.211-6.322 3.607 0 5.975 2.387 5.975 5.848 0 .364-.054.783-.091 1.184h-9.472c.255 2.259 1.694 3.388 3.734 3.388 1.804 0 2.86-.82 3.297-2.113l2.441.437c-.656 2.441-2.769 3.917-5.72 3.917-3.953.018-6.394-2.642-6.375-6.34Zm2.714-1.33h6.758c-.237-1.767-1.475-2.86-3.261-2.86-1.621.018-3.078.983-3.497 2.86ZM279.833 11.884h2.405l.127 1.676c.71-1.13 1.895-1.876 3.516-1.876.419 0 .747.054 1.202.164l-.346 2.477a4.26 4.26 0 0 0-1.257-.164c-1.694 0-3.115 1.257-3.115 3.57v6.358h-2.532V11.884ZM291.57 11.883l.091 1.713c1.001-1.203 2.441-1.95 4.135-1.95 3.388 0 5.975 2.678 5.975 6.322 0 3.643-2.587 6.339-5.975 6.339-1.64 0-3.079-.692-4.063-1.84v7.031h-2.532V11.865h2.369v.018Zm.163 6.085c0 2.386 1.476 4.007 3.68 4.007s3.68-1.621 3.68-4.008c0-2.386-1.494-3.989-3.68-3.989s-3.68 1.603-3.68 3.99ZM304.63 11.884h2.405l.127 1.676c.711-1.13 1.895-1.876 3.516-1.876.419 0 .747.054 1.202.164l-.346 2.477a4.26 4.26 0 0 0-1.257-.164c-1.694 0-3.115 1.257-3.115 3.57v6.358h-2.532V11.884ZM315.246 6.291c.966 0 1.639.656 1.639 1.603s-.692 1.621-1.639 1.621c-.947 0-1.621-.692-1.621-1.621s.692-1.603 1.621-1.603Zm-1.239 5.592h2.532v12.223h-2.532V11.883ZM319.108 20.627l2.586-.546c.328 1.42 1.275 2.13 2.824 2.13 1.402 0 2.332-.564 2.332-1.675 0-1.111-1.385-1.293-2.933-1.567-2.022-.346-4.336-.838-4.336-3.588 0-2.168 2.04-3.735 4.9-3.735 2.605 0 4.245 1.184 4.919 3.316l-2.532.546c-.328-1.202-1.13-1.767-2.387-1.767-1.384 0-2.277.62-2.277 1.53 0 1.112 1.257 1.294 2.733 1.549 2.058.346 4.554.765 4.554 3.57 0 2.24-1.64 3.935-4.991 3.935-2.733-.018-4.737-1.166-5.392-3.698ZM331.115 17.968c0-3.644 2.605-6.322 6.212-6.322 3.607 0 5.975 2.387 5.975 5.848 0 .364-.055.783-.091 1.184h-9.472c.255 2.259 1.694 3.388 3.734 3.388 1.785 0 2.86-.82 3.297-2.113l2.441.437c-.656 2.441-2.769 3.917-5.72 3.917-3.953.018-6.376-2.642-6.376-6.34Zm2.733-1.33h6.758c-.237-1.767-1.475-2.86-3.261-2.86-1.639.018-3.078.983-3.497 2.86ZM149.883 11.813c0-3.552-2.185-6.14-6.375-6.14h-13.535V24.09h4.445v-6.284h5.264l5.156 6.284h5.009v-.4l-5.009-5.994c3.151-.637 5.045-2.932 5.045-5.883Zm-6.867 2.277h-8.58V9.5h8.58c1.585 0 2.605.837 2.605 2.294 0 1.458-.984 2.296-2.605 2.296ZM217.079 5.674h-4.153v6.977h-11.221V5.674h-4.499V24.09h4.499v-7.25h11.221v7.25h4.153V5.674ZM118.079 5.674l-4.955 15.502h-.273l-4.973-15.502h-7.924V24.09h4.244V8.953h.273l4.955 15.137h6.831l4.973-15.137h.255V24.09h4.372V5.674h-7.778ZM69.66 13.216c-1.567-.164-4.5-.438-6.084-.602-1.549-.164-2.441-.619-2.441-1.639s.947-1.803 4.772-1.803c3.389 0 6.503.728 9.218 2.04V7.095c-2.733-1.293-5.72-1.93-9.454-1.93-5.247 0-8.872 2.185-8.872 5.901 0 3.133 2.132 4.845 6.394 5.32 1.548.163 4.172.4 6.011.546 2.004.164 2.587.783 2.587 1.694 0 1.257-1.403 2.022-4.955 2.022s-7.268-1.184-9.873-2.842v4.244c2.095 1.403 5.702 2.587 9.728 2.587 5.72 0 9.4-2.204 9.4-6.157.054-2.987-1.914-4.79-6.431-5.264ZM79.059 5.673v18.416h17.178v-3.77H83.303v-3.735h12.733V12.85H83.303V9.425h12.934v-3.77l-17.178.018ZM188.009 13.216c-1.566-.164-4.499-.438-6.066-.602-1.548-.164-2.441-.619-2.441-1.639s.947-1.803 4.773-1.803c3.388 0 6.503.728 9.217 2.04V7.095c-2.732-1.293-5.72-1.93-9.454-1.93-5.246 0-8.871 2.185-8.871 5.901 0 3.133 2.131 4.845 6.394 5.32 1.548.163 4.171.4 6.011.546 2.004.164 2.587.783 2.587 1.694 0 1.257-1.403 2.022-4.955 2.022s-7.268-1.184-9.873-2.842v4.244c2.095 1.403 5.701 2.587 9.727 2.587 5.72 0 9.4-2.204 9.4-6.157.036-2.987-1.931-4.79-6.449-5.264ZM167.698 5.674v9.436c0 3.57-2.168 5.537-5.429 5.537s-5.428-1.93-5.428-5.592V5.674h-4.427v8.962c0 6.685 4.19 10 9.928 10s9.8-3.169 9.8-9.781V5.674h-4.444ZM41.587 14.781c0 .893-.455 1.039-1.585 1.039-1.202 0-1.42-.2-1.548-1.111-.237-2.314-1.803-4.281-4.426-4.5-.82-.073-1.039-.382-1.039-1.42 0-.966.146-1.422.893-1.422 4.554.019 7.705 3.68 7.705 7.414Zm6.631 0C48.218 7.841 43.518.5 32.661.5H11.094c-.438 0-.71.219-.71.62 0 .218.163.418.309.528.783.619 1.949 1.311 3.48 2.076a53.02 53.02 0 0 0 3.824 1.713c.492.2.675.419.675.692 0 .382-.256.62-.802.62H.747c-.51 0-.747.327-.747.655 0 .273.091.51.328.747 1.384 1.457 3.607 3.206 6.83 5.21a98.592 98.592 0 0 0 9.109 5.009c.474.219.62.474.62.747-.019.31-.256.564-.802.564H8.252c-.456 0-.692.237-.692.602 0 .2.164.455.382.655 1.785 1.622 4.645 3.389 8.453 5.01 5.064 2.168 10.237 3.46 16.03 3.46 10.966.02 15.793-8.196 15.793-14.627ZM33.882 25.037c-5.629 0-10.292-4.572-10.292-10.274 0-5.701 4.681-10.128 10.292-10.128 5.61 0 10.274 4.5 10.274 10.128 0 5.629-4.518 10.274-10.274 10.274Z"/></g></svg>
